<svg viewBox="0 0 512 512" xmlns="http://www.w3.org/2000/svg">
    <path d="M256-0.2C114.6-0.2 0 114.4 0 255.8s114.6 256 256 256 256-114.6 256-256S397.4-0.2 256-0.2zM371 291.3c0 6.2-3.3 12.1-8.5 15.5l-97.1 64.1c-6.2 4.1-14.4 4.1-20.6 0L149.5 308c-5.2-3.4-8.5-9.3-8.5-15.5v-70.2c0-6.1 3.2-11.8 8.2-15.3l93.6-65.2c6.3-4.4 14.7-4.5 21-0.3l98.7 65.3c5.2 3.4 8.5 9.3 8.5 15.5V291.3z"></path>
    <polygon points="164 240.6 164 271.1 186.2 255.5 "></polygon>
    <polygon points="300.4 241.8 336.2 217.7 266.6 169.3 266.8 217.4 "></polygon>
    <polygon points="242 216.3 242 169.3 173.3 217.4 207.6 240.4 "></polygon>
    <polygon points="267 293.4 267 340.9 336 294.7 300.3 271.2 "></polygon>
    <polygon points="243 293.5 208.1 270.2 173.6 294.4 243 340.8 "></polygon>
    <polygon points="346 271.9 346 240.6 322.4 256.4 "></polygon>
    <polygon points="252.1 239.4 229.6 255.1 255.1 272.2 278.3 256.6 "></polygon>
</svg>